<?xml version="1.0" encoding="UTF-8" standalone="no"?>
<svg
   xmlns:dc="http://purl.org/dc/elements/1.1/"
   xmlns:cc="http://creativecommons.org/ns#"
   xmlns:rdf="http://www.w3.org/1999/02/22-rdf-syntax-ns#"
   xmlns:svg="http://www.w3.org/2000/svg"
   xmlns="http://www.w3.org/2000/svg"
   id="svg151"
   version="1.1"
   viewBox="0 0 177.79999 279.40001"
   height="1056px"
   width="672px">
  <defs
     id="defs145" />
  <metadata
     id="metadata148">
    <rdf:RDF>
      <cc:Work
         rdf:about="">
        <dc:format>image/svg+xml</dc:format>
        <dc:type
           rdf:resource="http://purl.org/dc/dcmitype/StillImage" />
        <dc:title></dc:title>
      </cc:Work>
    </rdf:RDF>
  </metadata>
  <g
     id="layer1">
    <path
       id="path842"
       style="fill:#070713bb;stroke-width:0.254"
       d="M 72.101468,278.26574 C 65.524721,276.61654 61.896966,269.70229 63.049782,263.30187 62.967814,204.22345 62.885846,145.14503 62.803878,86.066608 49.617177,100.01816 37.056083,114.61697 23.420066,128.10574 15.591442,134.02068 3.711701,125.96558 5.671761,116.70944 10.503291,104.8118 22.533236,97.120434 30.276558,86.957452 39.693715,77.224945 48.19147,66.448743 58.305776,57.482509 c 11.083343,-3.018565 23.077408,-0.934691 34.538973,-1.568654 19.323411,-2.38e-4 38.646791,-0.0027 57.970151,-0.0042 0.55851,-8.851712 -1.57747,-18.292116 1.83155,-26.627796 4.87363,-9.37393 20.76755,-5.900266 21.41522,4.43075 -0.16018,12.500475 0.63045,25.065302 -0.41886,37.512767 -4.64931,11.714049 -18.91649,7.083947 -28.60569,8.001561 -5.35538,0.01691 -10.71073,0.03381 -16.06611,0.05071 0,24.617933 0,49.235853 0,73.853773 7.27488,13.30189 16.24743,25.79409 22.19111,39.74113 0.85158,10.59723 -4.26726,20.80894 -6.12122,31.18254 -1.95019,10.29958 -5.43314,27.58375 -19.81382,23.08149 -13.45365,-4.79063 -7.04808,-20.34289 -4.42058,-30.1434 3.98454,-11.34205 6.77653,-22.98364 -2.70873,-32.4702 -3.02555,-5.18689 -6.04465,-10.37753 -9.06588,-15.56694 -6.985,-0.005 -13.970011,-0.0109 -20.955011,-0.0163 -0.13682,32.99664 0.32525,66.00392 -0.31782,98.99228 -0.41934,7.38106 -8.816683,12.3357 -15.657591,10.33373 z M 90.788829,51.700895 C 74.127833,48.859945 64.691336,27.69272 74.108677,13.514665 82.608125,-1.8727342 106.9552,-2.7969732 116.58765,11.874447 c 10.75956,13.802767 2.18073,36.445385 -14.99778,39.718644 -3.546351,0.562393 -7.243881,0.608216 -10.801041,0.107804 z" />
  </g>
</svg>
